<svg width="1244" height="1248" viewBox="0 0 1244 1248" fill="none" xmlns="http://www.w3.org/2000/svg">
<path fill-rule="evenodd" clip-rule="evenodd" d="M952.928 633.258L893.401 264.899C892.723 260.912 890.961 257.187 888.309 254.133C885.656 251.079 882.215 248.813 878.361 247.584C874.508 246.354 870.39 246.208 866.459 247.162C862.528 248.115 858.935 250.131 856.073 252.99L741.589 367.67L651.58 196.288C649.709 192.731 646.902 189.754 643.462 187.677C641.401 186.432 639.159 185.539 636.829 185.023C635.246 184.667 633.622 184.484 631.984 184.484C627.966 184.484 624.024 185.582 620.584 187.659C617.144 189.737 614.337 192.714 612.466 196.271L563.262 289.94L439.798 59.658C437.618 55.5788 434.21 52.2885 430.057 50.2522C425.904 48.216 421.216 47.537 416.656 48.3112C413.342 48.8738 410.218 50.183 407.512 52.12C406.458 52.8683 405.466 53.7114 404.551 54.6425C401.306 57.9424 399.182 62.1794 398.478 66.7535L309.988 633.258H952.928Z" fill="url(#paint0_linear_1392_94)"/>
<path d="M924.765 476.032C847.318 365.185 694.36 332.329 583.763 402.793L389.529 526.588C336.473 559.966 299.929 614.147 288.858 675.843C279.593 727.24 287.736 780.259 312 826.507C295.374 851.727 284.034 880.057 278.667 909.784C267.488 972.665 282.11 1037.4 319.231 1089.37C396.695 1200.23 549.655 1233.07 660.234 1162.61L854.467 1038.81C907.526 1005.44 944.072 951.257 955.139 889.558C964.401 838.161 956.263 785.144 932.011 738.891C948.632 713.671 959.967 685.342 965.33 655.618C976.515 592.736 961.893 528 924.765 476.032Z" fill="url(#paint1_linear_1392_94)"/>
<path d="M564.787 1099.8C502.181 1116.07 436.068 1091.57 399.197 1038.42C376.868 1007.16 368.073 968.233 374.796 930.417C375.923 924.271 377.474 918.211 379.438 912.279L383.096 901.125L393.046 908.434C416.028 925.32 441.724 938.159 469.027 946.397L476.246 948.587L475.581 955.792C474.699 966.041 477.474 976.272 483.415 984.671C494.512 1000.68 514.418 1008.07 533.274 1003.18C537.495 1002.05 541.518 1000.28 545.203 997.933L739.438 874.153C749.048 868.102 755.671 858.289 757.688 847.114C759.702 835.716 757.052 823.987 750.334 814.562C739.231 798.548 719.32 791.156 700.457 796.046C696.241 797.175 692.223 798.942 688.542 801.286L614.421 848.535C602.233 856.285 588.933 862.126 574.98 865.856C512.371 882.135 446.256 857.627 409.384 804.474C387.056 773.222 378.26 734.292 384.984 696.477C391.641 659.377 413.619 626.798 445.527 606.732L639.749 482.942C651.942 475.18 665.252 469.331 679.217 465.6C741.824 449.323 807.938 473.83 844.809 526.982C867.137 558.234 875.933 597.164 869.209 634.98C868.077 641.125 866.527 647.185 864.568 653.118L860.91 664.272L850.964 656.974C827.984 640.078 802.285 627.234 774.978 618.995L767.76 616.804L768.424 609.599C769.3 599.351 766.525 589.122 760.59 580.721C749.494 564.709 729.588 557.321 710.732 562.215C706.511 563.344 702.488 565.112 698.802 567.458L504.564 691.244C494.952 697.291 488.332 707.106 486.325 718.283C484.299 729.68 486.945 741.414 493.665 750.839C504.768 766.853 524.679 774.244 543.542 769.354C547.762 768.224 551.785 766.456 555.472 764.111L629.583 716.88C641.766 709.12 655.066 703.274 669.02 699.545C731.628 683.266 797.743 707.774 834.615 760.927C856.943 792.179 865.739 831.108 859.015 868.924C852.354 906.026 830.377 938.608 798.472 958.682L604.253 1082.46C592.06 1090.22 578.752 1096.07 564.787 1099.8Z" fill="white"/>
<defs>
<linearGradient id="paint0_linear_1392_94" x1="876.141" y1="261.821" x2="284.774" y2="577.053" gradientUnits="userSpaceOnUse">
<stop offset="0.76618" stop-color="#FFCA28"/>
<stop offset="1" stop-color="#FFAB20"/>
</linearGradient>
<linearGradient id="paint1_linear_1392_94" x1="622" y1="365.678" x2="622" y2="1199.72" gradientUnits="userSpaceOnUse">
<stop offset="0.104167" stop-color="#FFCA28"/>
<stop offset="1" stop-color="#FF3E00"/>
</linearGradient>
</defs>
</svg>
