<svg id="fi_2354809" enable-background="new 0 0 512 512" height="512" viewBox="0 0 512 512" width="512" xmlns="http://www.w3.org/2000/svg"><g><g><path d="m100.307 168.213c16.036-28.329 39.576-51.869 67.905-67.905l-77.512-28.761c-5.461-2.027-11.601-.684-15.719 3.434-4.119 4.118-5.459 10.258-3.434 15.719z"></path><path d="m77.22 256c0-16.617 2.287-32.71 6.549-47.986l-75.082 34.443c-5.294 2.428-8.687 7.719-8.687 13.543s3.393 11.115 8.687 13.543l75.083 34.443c-4.262-15.276-6.55-31.369-6.55-47.986z"></path><path d="m256 77.22c16.618 0 32.71 2.287 47.986 6.549l-34.443-75.082c-2.428-5.294-7.719-8.687-13.543-8.687s-11.115 3.393-13.543 8.687l-34.443 75.083c15.276-4.263 31.368-6.55 47.986-6.55z"></path><path d="m411.693 168.213 28.76-77.513c2.025-5.46.685-11.601-3.434-15.719-4.119-4.119-10.261-5.458-15.719-3.434l-77.513 28.76c28.329 16.037 51.869 39.577 67.906 67.906z"></path><path d="m256 434.78c-16.618 0-32.71-2.287-47.986-6.549l34.443 75.083c2.428 5.293 7.719 8.686 13.543 8.686s11.115-3.393 13.543-8.687l34.444-75.083c-15.277 4.262-31.369 6.55-47.987 6.55z"></path><path d="m100.307 343.787-28.76 77.513c-2.025 5.46-.685 11.601 3.434 15.719 2.845 2.845 6.655 4.364 10.539 4.364 1.738 0 3.492-.305 5.18-.93l77.513-28.76c-28.329-16.037-51.869-39.577-67.906-67.906z"></path><path d="m503.313 242.457-75.083-34.444c4.262 15.277 6.549 31.369 6.549 47.986s-2.287 32.71-6.549 47.986l75.083-34.443c5.294-2.427 8.687-7.718 8.687-13.542s-3.393-11.115-8.687-13.543z"></path><path d="m411.693 343.787c-16.036 28.329-39.576 51.869-67.905 67.905l77.513 28.76c1.689.627 3.442.93 5.18.93 3.884 0 7.695-1.519 10.539-4.364 4.119-4.118 5.459-10.258 3.434-15.719z"></path></g><path d="m256 404.98c-82.148 0-148.98-66.832-148.98-148.98s66.832-148.98 148.98-148.98 148.98 66.832 148.98 148.98-66.832 148.98-148.98 148.98z"></path></g></svg>